HIERARCHY
ROOT Hips
{
	OFFSET 0.000000 0.000000 0.000000
	CHANNELS 6 Xposition Yposition Zposition Zrotation Yrotation Xrotation 
	JOINT LHipJoint
	{
		OFFSET 0.000000 0.000000 0.000000
		CHANNELS 3 Zrotation Yrotation Xrotation
		JOINT LeftUpLeg
		{
			OFFSET 1.363060 -1.794630 0.839290
			CHANNELS 3 Zrotation Yrotation Xrotation
			JOINT LeftLeg
			{
				OFFSET 2.448110 -6.726130 0.000000
				CHANNELS 3 Zrotation Yrotation Xrotation
				JOINT LeftFoot
				{
					OFFSET 2.562200 -7.039590 0.000000
					CHANNELS 3 Zrotation Yrotation Xrotation
					JOINT LeftToeBase
					{
						OFFSET 0.157640 -0.433110 2.322550
						CHANNELS 3 Zrotation Yrotation Xrotation
						End Site
						{
							OFFSET 0.000000 0.000000 0.000000
						}
					}
				}
			}
		}
	}
	JOINT RHipJoint
	{
		OFFSET 0.000000 0.000000 0.000000
		CHANNELS 3 Zrotation Yrotation Xrotation
		JOINT RightUpLeg
		{
			OFFSET -1.305520 -1.794630 0.839290
			CHANNELS 3 Zrotation Yrotation Xrotation
			JOINT RightLeg
			{
				OFFSET -2.542530 -6.985550 0.000000
				CHANNELS 3 Zrotation Yrotation Xrotation
				JOINT RightFoot
				{
					OFFSET -2.568260 -7.056230 0.000000
					CHANNELS 3 Zrotation Yrotation Xrotation
					JOINT RightToeBase
					{
						OFFSET -0.164730 -0.452590 2.363150
						CHANNELS 3 Zrotation Yrotation Xrotation
						End Site
						{
							OFFSET 0.000000 0.000000 0.000000
						}
					}
				}
			}
		}
	}
	JOINT LowerBack
	{
		OFFSET 0.000000 0.000000 0.000000
		CHANNELS 3 Zrotation Yrotation Xrotation
		JOINT Spine
		{
			OFFSET 0.028270 2.035590 -0.193380
			CHANNELS 3 Zrotation Yrotation Xrotation
			JOINT Spine1
			{
				OFFSET 0.056720 2.048850 -0.042750
				CHANNELS 3 Zrotation Yrotation Xrotation
				JOINT Neck
				{
					OFFSET 0.000000 0.000000 0.000000
					CHANNELS 3 Zrotation Yrotation Xrotation
					JOINT Neck1
					{
						OFFSET -0.054170 1.746240 0.172020
						CHANNELS 3 Zrotation Yrotation Xrotation
						JOINT Head
						{
							OFFSET 0.104070 1.761360 -0.123970
							CHANNELS 3 Zrotation Yrotation Xrotation
							End Site
							{
								OFFSET 0.000000 0.000000 0.000000
							}
						}
					}
				}
				JOINT LeftShoulder
				{
					OFFSET 0.000000 0.000000 0.000000
					CHANNELS 3 Zrotation Yrotation Xrotation
					JOINT LeftArm
					{
						OFFSET 3.362410 1.200890 -0.311210
						CHANNELS 3 Zrotation Yrotation Xrotation
						JOINT LeftForeArm
						{
							OFFSET 4.983000 -0.000000 -0.000000
							CHANNELS 3 Zrotation Yrotation Xrotation
							JOINT LeftHand
							{
								OFFSET 3.483560 -0.000000 -0.000000
								CHANNELS 3 Zrotation Yrotation Xrotation
								JOINT LeftFingerBase
								{
									OFFSET 0.000000 0.000000 0.000000
									CHANNELS 3 Zrotation Yrotation Xrotation
									JOINT LeftHandIndex1
									{
										OFFSET 0.715260 -0.000000 -0.000000
										CHANNELS 3 Zrotation Yrotation Xrotation
										End Site
										{
											OFFSET 0.000000 0.000000 0.000000
										}
									}
								}
								JOINT LThumb
								{
									OFFSET 0.000000 0.000000 0.000000
									CHANNELS 3 Zrotation Yrotation Xrotation
									End Site
									{
										OFFSET 0.000000 0.000000 0.000000
									}
								}
							}
						}
					}
				}
				JOINT RightShoulder
				{
					OFFSET 0.000000 0.000000 0.000000
					CHANNELS 3 Zrotation Yrotation Xrotation
					JOINT RightArm
					{
						OFFSET -3.136600 1.374050 -0.404650
						CHANNELS 3 Zrotation Yrotation Xrotation
						JOINT RightForeArm
						{
							OFFSET -5.241900 -0.000000 -0.000000
							CHANNELS 3 Zrotation Yrotation Xrotation
							JOINT RightHand
							{
								OFFSET -3.444170 -0.000000 -0.000000
								CHANNELS 3 Zrotation Yrotation Xrotation
								JOINT RightFingerBase
								{
									OFFSET 0.000000 0.000000 0.000000
									CHANNELS 3 Zrotation Yrotation Xrotation
									JOINT RightHandIndex1
									{
										OFFSET -0.622530 -0.000000 -0.000000
										CHANNELS 3 Zrotation Yrotation Xrotation
										End Site
										{
											OFFSET 0.000000 0.000000 0.000000
										}
									}
								}
								JOINT RThumb
								{
									OFFSET 0.000000 0.000000 0.000000
									CHANNELS 3 Zrotation Yrotation Xrotation
									End Site
									{
										OFFSET 0.000000 0.000000 0.000000
									}
								}
							}
						}
					}
				}
			}
		}
	}
}
MOTION
Frames: 6
Frame Time: 0.008333
11.103999 18.273277 -42.835677 179.819835 -59.076692 -178.071668 -2.742809 2.200828 1.089139 -17.274822 -23.170033 -5.933167 -3.097048 6.782850 19.620813 2.932747 -3.694660 8.365344 0.292800 -3.479700 -9.617300 -4.469582 -2.294187 -0.506364 19.447559 4.850832 -17.174709 -7.362474 -17.221311 56.749398 4.712512 -16.713857 -4.062796 -0.399800 4.059700 -11.244600 3.519333 3.056115 9.100474 5.499022 4.613835 3.855371 -4.210167 2.019952 -11.779608 -9.127854 -7.924004 -17.613521 1.685703 -9.233232 12.469849 -1.700000 -4.779400 5.182700 -1.239374 -11.685556 1.621622 -86.611247 -11.555535 49.233600 42.981682 -40.706542 -19.900735 0.217616 0.607274 -5.164663 12.008534 -30.758327 -6.179000 -7.125000 0.000000 0.000000 -11.228400 -1.413900 11.727400 -0.135721 11.964189 3.200371 70.545722 27.953861 15.480132 -23.913440 26.404607 -7.364572 1.606262 0.680099 10.660108 -8.707147 -50.879653 7.971000 7.125000 0.000000 0.000000 62.657000 -74.537700 -47.678000 
11.098185 18.263904 -42.891799 179.413481 -61.154649 -177.784102 -2.853956 2.179927 1.076670 -17.328546 -23.808297 -5.719388 -3.061603 6.783464 19.732563 3.532651 -5.444335 8.566411 0.302000 -3.533500 -9.767700 -4.627184 -2.244286 -0.558702 19.482916 5.469275 -17.610369 -7.577493 -17.418582 57.565790 4.255479 -15.373437 -4.076368 -0.620200 5.039800 -14.022200 3.279906 3.203291 9.125882 5.326690 4.794564 3.856041 -4.190529 2.100781 -11.774641 -9.281266 -7.360607 -18.502985 1.984803 -8.244567 13.054371 -1.562600 -4.273600 5.540800 -1.211796 -11.664367 1.624983 -86.813509 -11.793501 50.672084 44.447616 -41.591300 -21.213945 0.220621 0.574178 -4.463037 10.373221 -31.050068 -5.345900 -7.125000 0.000000 0.000000 -12.165800 -1.433600 12.754600 -0.146899 12.010842 3.227350 70.125060 28.019932 17.483854 -24.122628 26.552244 -7.384345 1.617473 0.591091 12.933755 -7.751914 -49.569548 7.079900 7.125000 0.000000 0.000000 59.063900 -73.638600 -43.591200 
11.090117 18.249429 -42.947921 179.155442 -63.266333 -177.587296 -2.955443 2.159813 1.052768 -17.277609 -24.423408 -5.609595 -3.000335 6.844758 19.968180 4.038473 -6.968986 8.578213 0.318600 -3.628500 -10.033700 -4.765978 -2.186702 -0.600887 19.589619 6.113570 -17.929297 -7.664658 -17.540860 58.042083 3.770486 -13.960975 -4.540621 -0.659600 5.194500 -14.464200 3.203121 3.272958 9.249687 5.156179 4.910518 3.782019 -4.248951 2.117379 -11.827501 -7.673488 -6.408814 -19.310556 1.015482 -6.895892 13.487199 -2.054100 -3.616700 5.737900 -1.196352 -11.554109 1.661393 -86.090723 -12.850198 53.687745 44.549971 -41.631091 -21.384117 0.201008 0.581089 -5.435995 10.088537 -31.301511 -5.235300 -7.125000 0.000000 0.000000 -12.337400 -1.644400 12.987900 -0.172969 12.139017 3.262015 69.733633 28.140273 19.115185 -24.421377 26.803258 -7.450486 1.615571 0.517128 14.820308 -7.003310 -48.351020 6.374600 7.125000 0.000000 0.000000 56.024200 -72.781200 -40.127700 
11.077777 18.227953 -43.007840 178.991592 -65.458642 -177.442342 -3.056466 2.134524 1.021245 -17.158628 -25.079300 -5.562015 -2.922659 6.932500 20.276084 4.557993 -8.626203 8.692609 0.227800 -3.072100 -8.479700 -4.889053 -2.138814 -0.628911 19.736480 6.679165 -18.173832 -7.634128 -17.590494 58.126032 3.421017 -12.969330 -5.125048 -0.640300 5.119200 -14.248900 3.282309 3.283548 9.351577 4.867340 4.963816 3.675226 -4.412927 2.097800 -11.865801 -6.552808 -5.502867 -19.894292 0.676240 -5.641812 13.811972 -2.261600 -2.978200 5.923100 -1.161241 -11.472680 1.687851 -85.569697 -13.557703 55.656630 45.234895 -42.018421 -22.027925 0.187007 0.574554 -5.348895 9.600657 -31.447859 -4.999600 -7.125000 0.000000 0.000000 -12.611200 -1.716000 13.306000 -0.189112 12.226825 3.282585 69.596935 28.295678 20.527768 -24.742610 27.082695 -7.537220 1.608459 0.447415 16.605597 -6.574236 -47.303199 5.940700 7.125000 0.000000 0.000000 53.498300 -72.069900 -37.326900 
11.062352 18.211341 -43.077726 178.921543 -67.808165 -177.369362 -3.139074 2.067008 1.011891 -16.919478 -25.364350 -5.807606 -2.827157 7.046333 20.668605 5.253746 -11.004549 9.000916 0.213400 -2.974300 -8.207100 -4.996015 -2.080971 -0.648019 19.923231 7.350610 -18.324118 -7.469420 -17.563506 57.780312 3.174205 -12.291547 -5.706721 -0.608100 4.991200 -13.883500 3.346506 3.230150 9.311509 4.598803 4.911374 3.670441 -4.534836 2.045185 -11.783955 -5.658160 -4.594729 -20.408859 0.602029 -4.409182 13.964189 -2.341700 -2.343500 6.064700 -1.124607 -11.414842 1.709857 -85.083796 -14.149647 57.363773 45.843397 -42.350534 -22.599947 0.172278 0.569781 -5.022700 9.396811 -31.520224 -4.908300 -7.125000 0.000000 0.000000 -12.719500 -1.757500 13.435100 -0.208091 12.296904 3.295548 69.509354 28.629497 21.854904 -25.021045 27.318560 -7.638812 1.606404 0.391387 17.883862 -6.771471 -46.817197 6.037300 7.125000 0.000000 0.000000 52.010300 -71.855200 -35.918600 
11.041114 18.201256 -43.148442 179.335305 -70.323750 -177.791055 -3.187270 1.987240 1.042823 -16.468535 -25.208678 -6.310763 -2.729994 7.168239 21.086172 5.999231 -13.860096 9.561801 0.269400 -3.338600 -9.223000 -5.073742 -2.012303 -0.660045 20.210355 7.888800 -18.338215 -7.185450 -17.446287 57.071654 2.903597 -11.548207 -6.266439 -0.489900 4.487600 -12.452800 3.580220 3.108441 9.254231 4.534691 4.779876 3.718543 -4.688964 1.953722 -11.667858 -4.976479 -3.686235 -20.773462 0.542408 -3.175440 13.990955 -2.383900 -1.720900 6.156500 -1.112483 -11.382536 1.713754 -85.036957 -14.920601 58.896086 45.978723 -42.412084 -22.771183 0.171600 0.566480 -4.521854 9.435275 -31.443100 -4.921500 -7.125000 0.000000 0.000000 -12.689700 -1.686300 13.386500 -0.228278 12.369278 3.312333 69.327189 29.006381 22.977675 -25.296275 27.551773 -7.750673 1.603573 0.355935 18.542862 -7.060291 -46.477103 6.215800 7.125000 0.000000 0.000000 50.838300 -71.748100 -34.885800 
